<svg xmlns="http://www.w3.org/2000/svg"
 width="891" height="407" viewBox="0 0 688.025634 208.023486"
 preserveAspectRatio="xMidYMid meet">
<g transform="translate(-94.987658,312.000000) scale(0.100000,-0.100000)"
fill="#000000" stroke="none">
<path d="M5200 3113 c-47 -10 -145 -60 -196 -101 -145 -115 -253 -336 -272
-557 l-7 -80 -110 0 -110 0 -3 350 c-2 347 -2 350 19 368 21 17 20 17 -40 17
l-60 0 -10 -37 c-6 -21 -47 -184 -91 -363 -45 -178 -86 -327 -91 -331 -15 -9
-272 -10 -286 -1 -6 4 -48 154 -93 332 -44 179 -85 342 -91 363 l-10 37 -62 0
c-58 0 -60 -1 -40 -15 22 -16 22 -16 20 -368 l-2 -352 -142 -3 c-141 -3 -143
-2 -148 20 -3 13 -5 173 -3 356 3 317 4 334 22 348 18 12 11 14 -65 13 -60 0
-78 -3 -61 -9 l22 -9 0 -361 0 -360 -340 0 -340 1 24 37 c104 165 437 660 452
673 10 9 26 19 34 22 8 3 -7 6 -35 6 -31 0 -45 -2 -36 -8 18 -11 25 1 -234
-391 l-221 -336 -90 1 -89 0 -3 358 -2 358 22 9 c17 6 -1 9 -62 9 -62 0 -80
-2 -67 -10 16 -9 17 -38 17 -369 l0 -360 -129 0 c-71 0 -136 3 -145 6 -14 5
-16 46 -16 350 0 331 1 345 20 364 20 20 20 20 -63 19 -67 0 -78 -2 -59 -11
l22 -11 -2 -356 -3 -356 -333 -3 c-216 -1 -332 1 -332 8 0 5 82 135 183 287
100 153 202 308 226 345 26 40 55 72 74 82 l32 16 -50 0 c-32 0 -45 -3 -36 -9
17 -11 65 67 -336 -544 -87 -133 -128 -188 -141 -186 -42 4 -92 -2 -92 -11 0
-5 20 -10 45 -10 25 0 45 -2 45 -5 0 -3 -20 -36 -45 -73 -25 -37 -45 -71 -45
-77 0 -11 64 -83 295 -335 211 -230 211 -230 194 -241 -9 -5 19 -9 76 -8 l90
0 -36 19 c-23 12 -128 125 -285 306 -137 159 -255 296 -262 306 -11 15 -9 24
13 63 l27 45 349 0 349 0 0 -354 0 -355 -22 -15 c-21 -15 -17 -16 60 -16 l82
0 -20 20 c-19 19 -20 33 -20 370 l0 350 145 0 145 0 0 -360 0 -361 -22 -9
c-16 -6 3 -9 67 -9 72 0 85 3 67 11 l-22 11 0 359 0 358 85 0 85 0 -50 -74
c-28 -41 -50 -77 -50 -81 0 -9 30 -43 264 -301 110 -120 209 -229 220 -242 17
-20 18 -24 6 -32 -10 -7 16 -10 75 -9 l90 0 -35 19 c-21 11 -98 90 -185 192
-82 95 -194 225 -249 288 -55 63 -106 123 -114 132 -13 15 -11 23 14 63 l29
45 348 0 347 0 0 -358 0 -359 -22 -11 c-19 -9 -7 -11 61 -11 76 -1 83 1 65 13
-18 14 -19 31 -21 370 l-3 356 150 0 150 0 0 -350 c0 -337 -1 -351 -20 -370
l-20 -20 47 0 c46 0 47 1 25 16 l-22 15 0 355 0 354 88 0 87 0 94 -375 c51
-206 96 -375 100 -375 4 0 15 33 25 73 l17 74 -71 284 c-39 156 -73 292 -76
302 -5 16 6 17 140 17 80 0 146 -1 146 -2 0 -2 -18 -73 -40 -158 -22 -85 -40
-161 -40 -170 1 -34 18 19 56 173 l38 157 88 0 88 0 0 -354 0 -355 -22 -15
c-21 -15 -17 -16 62 -16 79 0 83 1 62 16 l-22 15 0 355 0 354 115 0 115 0 0
-54 c0 -176 95 -409 219 -535 116 -119 232 -167 381 -159 126 8 217 52 322
158 63 64 86 96 127 182 73 149 95 249 94 423 0 117 -4 156 -26 237 -60 226
-187 396 -354 476 -71 33 -86 37 -173 38 -52 1 -106 0 -120 -3z m248 -39 c263
-127 397 -591 291 -1006 -52 -206 -159 -359 -299 -425 -80 -38 -192 -39 -272
-1 -107 50 -177 123 -241 254 -57 115 -97 277 -97 397 l0 57 35 0 c19 0 35 5
35 10 0 6 -16 10 -36 10 l-37 0 6 93 c12 209 95 414 217 533 47 47 128 94 180
105 66 14 156 3 218 -27z m-1605 -696 c-2 -5 -40 -8 -84 -8 l-79 0 1 333 1
332 82 -325 c46 -179 81 -328 79 -332z m572 5 c-4 -13 -145 -19 -157 -8 -3 3
31 152 76 331 l81 325 3 -318 c1 -175 0 -323 -3 -330z"/>
<path d="M7396 3062 c-9 -32 -16 -68 -16 -80 0 -12 56 -247 125 -522 69 -275
125 -502 125 -505 0 -3 -110 -5 -245 -5 -227 0 -245 1 -245 18 0 9 43 186 95
392 82 326 97 398 82 379 -2 -2 -64 -247 -138 -544 -106 -429 -139 -545 -156
-562 l-22 -23 46 0 c43 0 45 1 28 14 -19 14 -19 16 9 133 16 65 33 133 38 151
l9 32 252 0 253 0 37 -152 c36 -143 37 -153 21 -165 -15 -11 -4 -13 67 -12 68
0 80 2 61 11 -28 14 -15 -33 -223 801 -96 383 -177 697 -180 697 -4 0 -14 -26
-23 -58z"/>
<path d="M958 3098 l22 -11 0 -727 0 -727 -22 -11 c-19 -9 -7 -11 61 -11 70
-1 82 1 68 12 -16 11 -17 65 -17 737 0 672 1 726 17 738 14 10 2 12 -68 11
-68 0 -80 -2 -61 -11z"/>
<path d="M6078 3100 l22 -9 0 -725 0 -725 -22 -15 c-21 -15 -17 -16 60 -16
l82 0 -20 20 c-20 20 -20 33 -20 746 l0 726 188 -4 c182 -3 188 -4 232 -30 61
-36 94 -73 124 -138 115 -251 -16 -560 -236 -560 -21 0 -38 -4 -38 -10 0 -5
12 -10 28 -10 45 0 124 -44 170 -94 82 -90 102 -171 102 -423 0 -171 0 -174
25 -198 29 -30 85 -34 106 -8 12 15 12 16 -5 10 -41 -16 -46 4 -46 207 0 214
-9 265 -62 348 -39 62 -88 104 -159 138 l-57 27 52 16 c133 42 224 145 256
289 16 71 1 177 -34 246 -33 65 -109 136 -181 169 l-60 28 -265 2 c-172 2
-257 -1 -242 -7z"/>
<path d="M4500 1390 c0 -7 432 -10 1275 -10 843 0 1275 3 1275 10 0 7 -432 10
-1275 10 -843 0 -1275 -3 -1275 -10z"/>
<path d="M5467 1193 c-12 -11 -8 -50 6 -61 6 -6 25 -14 40 -17 33 -9 46 -33
26 -46 -20 -13 -36 -11 -53 6 -22 22 -39 20 -26 -4 12 -24 62 -36 89 -21 14 7
21 21 21 39 0 28 -7 33 -73 55 -10 3 -17 12 -15 19 6 16 49 22 58 7 4 -7 13
-11 20 -8 9 3 8 9 -4 21 -17 17 -76 24 -89 10z"/>
<path d="M5580 1190 c0 -5 11 -10 25 -10 24 0 25 -2 25 -70 0 -40 4 -70 10
-70 6 0 10 30 10 70 0 68 1 70 25 70 14 0 25 5 25 10 0 6 -27 10 -60 10 -33 0
-60 -4 -60 -10z"/>
<path d="M5712 1133 c3 -62 5 -69 31 -83 24 -13 30 -13 55 0 25 14 27 21 30
83 2 42 -1 67 -8 67 -6 0 -10 -24 -10 -58 0 -60 -11 -82 -42 -82 -25 0 -38 31
-38 89 0 29 -5 51 -10 51 -7 0 -10 -25 -8 -67z"/>
<path d="M5850 1120 c0 -89 1 -89 71 -70 42 12 64 51 53 94 -9 35 -40 56 -86
56 l-38 0 0 -80z m81 50 c13 -7 19 -21 19 -43 0 -39 -15 -57 -47 -57 -21 0
-23 4 -23 55 0 59 9 67 51 45z"/>
<path d="M5992 1123 c2 -44 7 -78 13 -78 6 0 11 34 13 78 2 65 0 77 -13 77
-13 0 -15 -12 -13 -77z"/>
<path d="M6056 1181 c-33 -36 -21 -111 20 -130 73 -33 137 58 88 127 -20 29
-83 31 -108 3z m88 -17 c22 -21 20 -60 -4 -84 -24 -24 -29 -24 -58 -4 -39 27
-23 104 23 104 13 0 31 -7 39 -16z"/>
</g>
</svg>
